<svg class="ldi-c4d14p" width="289px"  height="289px"  xmlns="http://www.w3.org/2000/svg" xmlns:xlink="http://www.w3.org/1999/xlink" viewBox="0 0 100 100" preserveAspectRatio="xMidYMid" style="background: none;"><!--?xml version="1.0" encoding="utf-8"?--><!--Generator: Adobe Illustrator 21.0.0, SVG Export Plug-In . SVG Version: 6.00 Build 0)--><svg version="1.1" id="圖層_1" xmlns="http://www.w3.org/2000/svg" xmlns:xlink="http://www.w3.org/1999/xlink" x="0px" y="0px" viewBox="0 0 100 100" style="transform-origin: 50px 50px 0px;" xml:space="preserve" class=""><g class="" style="transform-origin: 50px 50px 0px; transform: scale(0.6);"><g class="" style="transform-origin: 50px 50px 0px;"><style type="text/css" class="ld ld-breath" style="transform-origin: 50px 50px 0px; animation-duration: 1s; animation-delay: -1s;">.st0{fill:#666666;} .st1{fill:#EBB885;} .st2{fill:#E0E0E0;} .st3{fill:#A0C8D7;} .st4{fill:#66503A;} .st5{fill:#ABBD81;} .st6{fill:#A0C8D7;stroke:#333333;stroke-width:2;stroke-miterlimit:10;} .st7{fill:#FFFFFF;} .st8{fill:#66503A;stroke:#333333;stroke-width:2;stroke-miterlimit:10;} .st9{fill:#E0E0E0;stroke:#333333;stroke-width:2;stroke-miterlimit:10;} .st10{fill:#03AFF3;} .st11{fill:none;stroke:#333333;stroke-width:5;stroke-linecap:round;stroke-miterlimit:10;} .st12{fill:#8C6239;} .st13{fill:#F5E6C8;} .st14{fill:#333333;} .st15{fill:#F47E60;} .st16{fill:#E15B64;} .st17{fill:none;stroke:#000000;stroke-width:6;stroke-miterlimit:10;} .st18{fill:#4A3827;} .st19{fill:none;stroke:#666666;stroke-width:5.8262;stroke-linecap:round;stroke-miterlimit:10;} .st20{fill:#77A4BD;} .st21{fill:#F8B26A;} .st22{fill:#849B87;} .st23{fill:none;} .st24{fill:#FFFFFF;stroke:#000000;stroke-width:4;stroke-miterlimit:10;} .st25{fill:none;stroke:#849B87;stroke-width:4;stroke-miterlimit:10;} .st26{fill:none;stroke:#849B87;stroke-width:4.1718;stroke-miterlimit:10;} .st27{fill:#C33737;} .st28{fill:#FFDC6C;stroke:#FFFFFF;stroke-width:2.4393;stroke-miterlimit:10;} .st29{stroke:#000000;stroke-width:3;stroke-miterlimit:10;} .st30{stroke:#000000;stroke-width:3;stroke-linecap:round;stroke-linejoin:round;stroke-miterlimit:10;} .st31{fill:#E0E0E0;stroke:#000000;stroke-width:3;stroke-miterlimit:10;} .st32{fill:#735441;} .st33{fill:#C8DC96;} .st34{fill:#F5E6C8;stroke:#C33737;stroke-width:6;stroke-miterlimit:10;} .st35{fill:#F5E6C8;stroke:#000000;stroke-width:4.2393;stroke-miterlimit:10;} .st36{fill:#F5E169;} .st37{fill:#FFDC6C;} .st38{fill:none;stroke:#000000;stroke-width:5.1342;stroke-miterlimit:10;} .st39{fill:none;stroke:#000000;stroke-width:4.908;stroke-miterlimit:10;} .st40{fill:none;stroke:#000000;stroke-width:5.0371;stroke-miterlimit:10;} .st41{fill:none;stroke:#000000;stroke-width:5.4333;stroke-miterlimit:10;} .st42{fill:none;stroke:#333333;stroke-width:4.308;stroke-miterlimit:10;} .st43{fill:#F8B26A;stroke:#333333;stroke-width:3;stroke-miterlimit:10;} .st44{fill:#FFFF00;stroke:#333333;stroke-width:3;stroke-miterlimit:10;} .st45{fill:#F8B26A;stroke:#F47E60;stroke-width:2.326;stroke-miterlimit:10;} .st46{fill:#333333;stroke:#333333;stroke-width:3;stroke-miterlimit:10;} .st47{fill:#8A8A8A;} .st48{fill:none;stroke:#333333;stroke-width:3;stroke-linecap:round;stroke-linejoin:round;stroke-miterlimit:10;} .st49{fill:none;stroke:#333333;stroke-width:2;stroke-linecap:round;stroke-linejoin:round;stroke-miterlimit:10;} .st50{fill:#983733;} .st51{fill:#D50D01;} .st52{fill:#81C927;} .st53{fill:#C33737;stroke:#333333;stroke-width:2;stroke-miterlimit:10;} .st54{fill:#F5E6C8;stroke:#333333;stroke-width:2;stroke-miterlimit:10;} .st55{fill:#FFFFFF;stroke:#333333;stroke-width:4;stroke-miterlimit:10;} .st56{fill:none;stroke:#E15B64;stroke-width:3;stroke-miterlimit:10;} .st57{fill:#FFFFFF;stroke:#333333;stroke-width:6;stroke-linecap:round;stroke-miterlimit:10;}</style><g class="ld ld-breath" style="transform-origin: 50px 50px 0px; animation-duration: 1s; animation-delay: -0.941176s;"><path id="XMLID_56_" class="st5" d="M43.06,44.459c0.847-0.509,1.392-1.391,1.476-2.375c0.104-1.221,0.311-2.458,0.531-3.742 c0.313-1.824,0.638-3.711,0.661-5.651c0.038-3.233-0.785-6.642-2.381-9.859c-2.716-5.475-7.256-9.517-12.456-11.09l-0.138-0.035 c-2.67-0.554-6.056-0.598-8.019-0.358c-2.054,0.252-5.863,0.817-8.281,1.775c-2.42,0.956-4.541,2.544-4.63,2.61l-1.196,0.901 l1.966,3.003c1.313,2.007,2.411,4.563,3.472,7.034c0.405,0.942,0.801,1.864,1.198,2.73c1.327,2.899,3.259,6.545,6.444,9.028 c3.462,2.701,7.696,3.584,11.791,4.437c2.426,0.506,4.744,0.995,6.878,1.824C41.258,45.033,42.248,44.947,43.06,44.459L43.06,44.459 z" fill="rgb(171, 189, 129)" style="fill: rgb(171, 189, 129);"></path></g><g class="ld ld-breath" style="transform-origin: 50px 50px 0px; animation-duration: 1s; animation-delay: -0.882353s;"><path id="XMLID_83_" class="st33" d="M60.708,28.01c0.353-0.064,0.692-0.183,1.022-0.323c0.489-0.208,0.977-0.365,1.486-0.529 c0.95-0.305,1.933-0.622,3.016-1.279c1.582-0.962,3.549-2.297,4.748-4.104c1.353-2.041,1.478-4.221,1.587-6.145 c0.077-1.347,0.149-2.62,0.612-3.761l1.156-2.854l-2.999,0.695c-1.02,0.236-2.088,0.319-3.219,0.407 c-1.079,0.084-2.195,0.171-3.323,0.4c-1.895,0.383-3.809,1.174-5.538,2.287c-3.035,1.954-5.038,4.623-5.495,7.324l-0.015,0.089 l-0.005,0.091c-0.069,1.239,0.181,2.874,0.606,3.972c0.061,0.157,0.116,0.319,0.174,0.482c0.26,0.742,0.585,1.667,1.327,2.577 c0.076,0.093,0.828,0.349,0.902,0.435l1.155,0.327c0.61,0.165,1.25,0.193,1.872,0.08L60.708,28.01z" fill="rgb(200, 220, 150)" style="fill: rgb(200, 220, 150);"></path></g><g class="ld ld-breath" style="transform-origin: 50px 50px 0px; animation-duration: 1s; animation-delay: -0.823529s;"><path id="XMLID_58_" class="st22" d="M54.375,49.645l1.262,0.291c2.029,0.471,4.355,1.381,6.603,2.262 c0.852,0.334,1.686,0.66,2.481,0.955c2.388,0.883,5.424,1.854,8.36,1.854c0.348,0,0.695-0.015,1.039-0.043 c3.624-0.305,6.227-2.14,8.743-3.915c1.812-1.277,3.523-2.482,5.549-3.076l2.961-0.866l-2.416-1.92 c-1.361-1.082-2.549-2.355-3.807-3.704c-1.157-1.24-2.353-2.523-3.714-3.666c-2.265-1.903-5.042-3.448-8.031-4.465 c-5.187-1.768-10.213-1.652-13.787,0.313l-0.152,0.096c-1.508,1.065-3.181,2.868-4.068,4.384c-0.934,1.594-2.131,3.886-2.533,5.756 c-0.221,1.031-0.273,2.108-0.273,2.919C52.603,48.397,53.185,49.352,54.375,49.645z" fill="rgb(132, 155, 135)" style="fill: rgb(132, 155, 135);"></path></g><g class="ld ld-breath" style="transform-origin: 50px 50px 0px; animation-duration: 1s; animation-delay: -0.764706s;"><path class="st4" d="M66.508,15.119c-0.642,1.629-1.587,3.126-2.518,4.601c-0.937,1.479-1.943,2.909-2.955,4.337 c-1.013,1.427-2.076,2.817-3.162,4.198c-1.076,1.373-2.239,2.755-3.484,4.032c-2.171,2.463-3.81,5.325-4.769,8.345 c-0.458,1.502-0.794,3.081-0.875,4.565c-0.088,1.517,0.059,3.094,0.277,4.717c0.229,1.627,0.574,3.295,0.857,5.045 c0.296,1.751,0.528,3.578,0.68,5.378c0.332,3.616,0.236,7.261-0.111,10.872c-0.364,3.611-0.995,7.201-1.974,10.704 c-0.844,3.034-1.611,4.836-2.251,8.246c-0.185,0.984-1.052,1.696-2.053,1.696h-2.388c-1.499,0-2.51-1.528-1.925-2.908 c1.206-2.849,2.557-6.255,3.236-8.562c0.947-3.176,1.602-6.443,1.971-9.742c0.376-3.299,0.452-6.63,0.28-9.946 c-0.089-1.666-0.243-3.296-0.472-4.98c-0.237-1.686-0.476-3.445-0.634-5.272c-0.156-1.829-0.19-3.742,0.072-5.687 c0.256-1.977,0.816-3.788,1.567-5.539c1.49-3.486,3.833-6.538,6.715-8.843c2.578-2.152,4.936-4.729,7.291-7.256 c1.179-1.27,2.323-2.57,3.461-3.879C64.457,17.914,65.609,16.611,66.508,15.119z" fill="rgb(102, 80, 58)" style="fill: rgb(102, 80, 58);"></path></g><g class="ld ld-breath" style="transform-origin: 50px 50px 0px; animation-duration: 1s; animation-delay: -0.705882s;"><path class="st4" d="M16.571,18.263c7.658,4.311,14.673,9.88,20.657,16.468c2.974,3.302,5.783,6.803,8.084,10.725 c1.949,3.294,3.527,6.916,4.386,10.789c0.255,1.148-0.557,2.264-1.726,2.389l-0.039,0.004c-1.055,0.113-2.009-0.628-2.156-1.679 c-0.481-3.42-1.625-6.811-3.204-10.028c-1.852-3.825-4.292-7.426-6.933-10.865C30.329,29.203,23.867,23.164,16.571,18.263z" fill="rgb(102, 80, 58)" style="fill: rgb(102, 80, 58);"></path></g><g class="ld ld-breath" style="transform-origin: 50px 50px 0px; animation-duration: 1s; animation-delay: -0.647059s;"><path class="st4" d="M87.12,45.345c-3.524-0.453-7.065-0.455-10.602-0.365c-1.772,0.038-3.545,0.113-5.298,0.214l-2.632,0.136 c-0.867,0.086-1.73,0.18-2.588,0.31c-6.208,0.914-12.159,3.118-17.377,6.361c-0.921,0.573-2.133,0.27-2.701-0.654l0,0 c-0.614-0.999-0.222-2.302,0.83-2.82c5.987-2.948,12.509-4.631,19.047-4.951c0.906-0.048,1.813-0.058,2.717-0.059l2.687,0.122 c1.793,0.072,3.566,0.17,5.339,0.305C80.089,44.198,83.656,44.55,87.12,45.345z" fill="rgb(102, 80, 58)" style="fill: rgb(102, 80, 58);"></path></g><g class="ld ld-breath" style="transform-origin: 50px 50px 0px; animation-duration: 1s; animation-delay: -0.588235s;"><path id="XMLID_86_" class="st18" d="M41.691,88.261c-0.489,0.146-0.972,0.315-1.44,0.526c-1.441,0.649-2.732,1.586-3.997,2.534 c-1.051,0.787-2.131,1.658-2.913,2.694h24.527c-1.962-2.228-4.344-4.094-7.088-5.203c-1.698-0.686-3.537-1.06-5.368-1.072 C44.185,87.742,42.943,87.935,41.691,88.261z" fill="#4a3827" style="fill: rgb(74, 56, 39);"></path></g><metadata xmlns:d="https://loading.io/stock/" class="ld ld-breath" style="transform-origin: 50px 50px 0px; animation-duration: 1s; animation-delay: -0.529412s;">
<d:name class="ld ld-breath" style="transform-origin: 50px 50px 0px; animation-duration: 1s; animation-delay: -0.470588s;">entrepreneur</d:name>
<d:tags class="ld ld-breath" style="transform-origin: 50px 50px 0px; animation-duration: 1s; animation-delay: -0.411765s;">startup,grow,newborn,leaf,plant,environment,csr,entrepreneur,business</d:tags>
<d:license class="ld ld-breath" style="transform-origin: 50px 50px 0px; animation-duration: 1s; animation-delay: -0.352941s;">rf</d:license>
<d:slug class="ld ld-breath" style="transform-origin: 50px 50px 0px; animation-duration: 1s; animation-delay: -0.294118s;">c4d14p</d:slug>
</metadata></g></g><style type="text/css" class="ld ld-breath" style="transform-origin: 50px 50px 0px; animation-duration: 1s; animation-delay: -0.235294s;">path,ellipse,circle,rect,polygon,polyline,line { stroke-width: 0; }@keyframes ld-breath {
  0% {
    -webkit-transform: scale(0.86);
    transform: scale(0.86);
  }
  50% {
    -webkit-transform: scale(1.06);
    transform: scale(1.06);
  }
  100% {
    -webkit-transform: scale(0.86);
    transform: scale(0.86);
  }
}
@-webkit-keyframes ld-breath {
  0% {
    -webkit-transform: scale(0.86);
    transform: scale(0.86);
  }
  50% {
    -webkit-transform: scale(1.06);
    transform: scale(1.06);
  }
  100% {
    -webkit-transform: scale(0.86);
    transform: scale(0.86);
  }
}
.ld.ld-breath {
  -webkit-animation: ld-breath 1s infinite;
  animation: ld-breath 1s infinite;
}
</style></svg></svg>